<svg width="394" height="799" viewBox="0 0 394 799" fill="none" xmlns="http://www.w3.org/2000/svg">
<g id="Pixel XL quite black">
<path id="body" fill-rule="evenodd" clip-rule="evenodd" d="M335.602 0.525879H54.8222C24.9463 0.525879 0.727051 24.7451 0.727051 54.6211V744.12C0.727051 773.996 24.9463 798.215 54.8222 798.215H335.602C365.478 798.215 389.697 773.996 389.697 744.12V407.528H390.556C391.979 407.528 393.132 406.375 393.132 404.952V308.783C393.132 307.36 391.979 306.207 390.556 306.207H389.697V243.525H390.556C391.979 243.525 393.132 242.372 393.132 240.949V195.44C393.132 194.018 391.979 192.864 390.556 192.864H389.697V54.6211C389.697 24.7451 365.478 0.525879 335.602 0.525879ZM7.59628 54.6211C7.59628 28.5389 28.7401 7.39511 54.8222 7.39511H335.602C361.684 7.39511 382.828 28.5389 382.828 54.6211V744.12C382.828 770.202 361.684 791.346 335.602 791.346H54.8222C28.7401 791.346 7.59628 770.202 7.59628 744.12V54.6211Z" fill="#424242"/>
<g id="lines">
<path d="M0.727051 66.6422V76.9461H284.083H294.387H389.697V66.6422H294.387V0.525879H284.083V66.6422H0.727051Z" fill="#353535"/>
<path d="M389.637 746.696H0.787215C0.952825 750.23 1.45762 753.675 2.26973 757H388.155C388.967 753.675 389.471 750.23 389.637 746.696Z" fill="#353535"/>
</g>
<path id="face" d="M7.59616 54.6212C7.59616 28.539 28.7399 7.39526 54.8221 7.39526H335.602C361.684 7.39526 382.828 28.539 382.828 54.6212V744.12C382.828 770.203 361.684 791.346 335.602 791.346H54.8221C28.74 791.346 7.59616 770.202 7.59616 744.12V54.6212Z" fill="#1D1D1D"/>
<rect id="screen" x="19.188" y="80.8102" width="352.048" height="626.817" fill="white" stroke="black" stroke-width="0.858654"/>
<g id="Header" filter="url(#filter0_b)">
<rect width="353" height="37.5178" transform="translate(19 80)" fill="#F9F9F9" fill-opacity="0.78"/>
<g id="Status Bar">
<g id="&#226;&#157;&#150; Masters / &#226;&#157;&#150; Status Bar">
<g id="&#226;&#157;&#150; Masters / Status Bar Parts / Left / basic" filter="url(#filter1_b)">
<g id="Time + Geo">
<path id="Time" d="M46.7572 105.937V104.145H42.0609V102.613C42.8425 101.174 44.1481 99.078 45.9778 96.3246H48.4025V102.693H49.7015V104.145H48.4025V105.937H46.7572ZM43.653 102.633V102.733H46.7838V97.7235H46.6906C45.6514 99.2601 44.6388 100.897 43.653 102.633ZM52.4463 104.918C52.1354 104.918 51.88 104.818 51.6802 104.618C51.4804 104.418 51.3804 104.167 51.3804 103.865C51.3804 103.559 51.4804 103.308 51.6802 103.113C51.88 102.913 52.1354 102.813 52.4463 102.813C52.7616 102.813 53.0169 102.913 53.2123 103.113C53.4122 103.308 53.5121 103.559 53.5121 103.865C53.5121 104.167 53.4122 104.418 53.2123 104.618C53.0169 104.818 52.7616 104.918 52.4463 104.918ZM52.4463 99.9218C52.1354 99.9218 51.88 99.8241 51.6802 99.6287C51.4804 99.4288 51.3804 99.1779 51.3804 98.8759C51.3804 98.5695 51.4804 98.3186 51.6802 98.1232C51.88 97.9234 52.1354 97.8234 52.4463 97.8234C52.7616 97.8234 53.0169 97.9234 53.2123 98.1232C53.4122 98.3186 53.5121 98.5695 53.5121 98.8759C53.5121 99.1779 53.4122 99.4288 53.2123 99.6287C53.0169 99.8241 52.7616 99.9218 52.4463 99.9218ZM55.3842 99.1357C55.3842 98.2387 55.6951 97.5059 56.3168 96.9375C56.943 96.369 57.749 96.0848 58.7349 96.0848C59.6852 96.0848 60.4668 96.3446 61.0797 96.8642C61.697 97.3838 62.0056 98.0455 62.0056 98.8493C62.0056 99.3644 61.8502 99.8752 61.5393 100.381C61.2284 100.883 60.6644 101.538 59.8473 102.347L57.8356 104.365V104.478H62.1522V105.937H55.4775V104.745L58.6816 101.467C59.3388 100.801 59.7763 100.301 59.9939 99.9684C60.2115 99.6309 60.3203 99.2934 60.3203 98.9559C60.3203 98.534 60.1648 98.1854 59.854 97.91C59.5476 97.6347 59.1568 97.497 58.6816 97.497C58.1798 97.497 57.7734 97.648 57.4625 97.95C57.1517 98.252 56.9962 98.6472 56.9962 99.1357V99.1624H55.3842V99.1357ZM67.3283 106.177C66.1737 106.177 65.2722 105.733 64.6238 104.845C63.9799 103.956 63.6579 102.715 63.6579 101.121C63.6579 99.5354 63.9821 98.3008 64.6305 97.4171C65.2833 96.5289 66.1826 96.0848 67.3283 96.0848C68.4741 96.0848 69.3711 96.5289 70.0195 97.4171C70.6679 98.3053 70.9921 99.5443 70.9921 101.134C70.9921 102.72 70.6679 103.956 70.0195 104.845C69.3756 105.733 68.4785 106.177 67.3283 106.177ZM65.9028 103.819C66.2403 104.44 66.7155 104.751 67.3283 104.751C67.9412 104.751 68.4141 104.44 68.7472 103.819C69.0847 103.193 69.2535 102.293 69.2535 101.121C69.2535 99.9573 69.0847 99.0669 68.7472 98.4496C68.4097 97.8279 67.9367 97.517 67.3283 97.517C66.7199 97.517 66.2447 97.8279 65.9028 98.4496C65.5653 99.0713 65.3965 99.9618 65.3965 101.121C65.3965 102.293 65.5653 103.193 65.9028 103.819Z" fill="black"/>
</g>
</g>
<g id="&#226;&#157;&#150; Masters / Status Bar Parts / Right / signal | wifi | battery: full" filter="url(#filter2_b)">
<g id="indicators" clip-path="url(#clip0)">
<g id="&#226;&#157;&#150; Masters / Status Bar Parts / Atoms / indicator: signal">
<rect id="signal-4" opacity="0.2" x="310.182" y="96.2007" width="2.9843" height="9.80556" rx="0.852657" fill="black"/>
<path id="signal-3" d="M305.919 99.1849C305.919 98.714 306.301 98.3323 306.772 98.3323H308.051C308.522 98.3323 308.903 98.714 308.903 99.1849V105.154C308.903 105.624 308.522 106.006 308.051 106.006H306.772C306.301 106.006 305.919 105.624 305.919 105.154V99.1849Z" fill="black"/>
<path id="signa-2" d="M301.656 101.316C301.656 100.845 302.038 100.464 302.508 100.464H303.787C304.258 100.464 304.64 100.845 304.64 101.316V105.153C304.64 105.624 304.258 106.006 303.787 106.006H302.508C302.038 106.006 301.656 105.624 301.656 105.153V101.316Z" fill="black"/>
<path id="signal-1" d="M297.393 103.022C297.393 102.551 297.774 102.169 298.245 102.169H299.524C299.995 102.169 300.377 102.551 300.377 103.022V105.153C300.377 105.624 299.995 106.006 299.524 106.006H298.245C297.774 106.006 297.393 105.624 297.393 105.153V103.022Z" fill="black"/>
</g>
<g id="&#226;&#157;&#150; Masters / Status Bar Parts / Atoms / indicator: wifi" clip-path="url(#clip1)">
<path id="wifi-low" d="M326.234 104.121C326.289 104.067 326.319 103.992 326.318 103.915C326.316 103.837 326.283 103.764 326.226 103.712C325.086 102.748 323.417 102.748 322.278 103.712C322.22 103.764 322.187 103.837 322.185 103.915C322.184 103.992 322.214 104.067 322.269 104.121L324.054 105.923C324.106 105.976 324.177 106.006 324.252 106.006C324.326 106.006 324.397 105.976 324.45 105.923L326.234 104.121Z" fill="black"/>
<path id="wifi-medium" d="M324.251 101.631C325.339 101.631 326.388 102.036 327.194 102.767C327.303 102.87 327.475 102.868 327.581 102.762L328.612 101.718C328.667 101.664 328.697 101.589 328.696 101.512C328.695 101.435 328.664 101.362 328.608 101.308C326.153 99.022 322.352 99.022 319.897 101.308C319.841 101.362 319.81 101.435 319.809 101.512C319.808 101.589 319.838 101.664 319.893 101.718L320.924 102.762C321.03 102.868 321.202 102.87 321.311 102.767C322.117 102.036 323.165 101.632 324.251 101.631Z" fill="black"/>
<path id="wifi-high" opacity="0.2" d="M324.252 98.2371C326.231 98.2371 328.135 98.9985 329.569 100.364C329.677 100.469 329.85 100.468 329.956 100.361L330.989 99.3175C331.043 99.2632 331.073 99.1897 331.072 99.1132C331.072 99.0366 331.041 98.9635 330.987 98.9098C327.221 95.2976 321.281 95.2976 317.516 98.9098C317.461 98.9634 317.43 99.0366 317.43 99.1131C317.429 99.1896 317.459 99.2632 317.513 99.3175L318.546 100.361C318.653 100.468 318.825 100.469 318.933 100.364C320.368 98.9984 322.272 98.2371 324.252 98.2371Z" fill="black"/>
</g>
<g id="&#226;&#157;&#150; Masters / Status Bar Parts / Atoms / indicator: battery" clip-path="url(#clip2)">
<g id="Levels">
<g id="battery-levels" clip-path="url(#clip3)">
<path id="level-start" d="M336.188 98.5453C336.188 97.9567 336.666 97.4795 337.254 97.4795H337.894V104.727H337.254C336.666 104.727 336.188 104.25 336.188 103.661V98.5453Z" fill="black"/>
<path id="level-2" d="M337.894 97.4795H339.599V104.727H337.894V97.4795Z" fill="black"/>
<path id="level-3" d="M339.599 97.4795H341.304V104.727H339.599V97.4795Z" fill="black"/>
<path id="level-4" d="M341.304 97.4795H343.01V104.727H341.304V97.4795Z" fill="black"/>
<path id="level-5" d="M343.01 97.4795H344.715V104.727H343.01V97.4795Z" fill="black"/>
<path id="level-6" d="M344.715 97.4795H346.42V104.727H344.715V97.4795Z" fill="black"/>
<path id="level-7" d="M346.42 97.4795H348.126V104.727H346.42V97.4795Z" fill="black"/>
<path id="level-last" d="M349.831 98.5453C349.831 97.9567 349.354 97.4795 348.765 97.4795H348.126V104.727H348.765C349.354 104.727 349.831 104.25 349.831 103.661V98.5453Z" fill="black"/>
</g>
</g>
<g id="Vector" opacity="0.5">
<path fill-rule="evenodd" clip-rule="evenodd" d="M334.483 98.3324C334.483 96.9197 335.628 95.7744 337.041 95.7744H352.389C353.802 95.7744 354.947 96.9197 354.947 98.3324V103.875C354.947 105.287 353.802 106.433 352.389 106.433H337.041C335.628 106.433 334.483 105.287 334.483 103.875V98.3324ZM337.041 96.6271C336.099 96.6271 335.336 97.3906 335.336 98.3324V103.875C335.336 104.816 336.099 105.58 337.041 105.58H352.389C353.331 105.58 354.094 104.816 354.094 103.875V98.3324C354.094 97.3906 353.331 96.6271 352.389 96.6271H337.041Z" fill="black"/>
<path d="M355.8 103.058C356.552 102.729 357.078 101.978 357.078 101.104C357.078 100.229 356.552 99.4782 355.8 99.1492V103.058Z" fill="black"/>
</g>
</g>
</g>
</g>
</g>
</g>
<g id="Divider">
<rect id="-divider-line" x="19" y="117.091" width="353" height="0.426329" fill="#C6C6C8"/>
</g>
</g>
<rect id="sensor" x="181.903" y="60.6318" width="27.4769" height="11.1625" rx="5.58125" fill="black"/>
<rect id="earpiece" x="156.143" y="30.5789" width="78.9962" height="8.58654" rx="4.29327" fill="#424242"/>
<circle id="cam frame" cx="67.2726" cy="34.4429" r="8.15721" fill="#424242"/>
<circle id="lens" cx="67.2726" cy="34.4428" r="4.7226" fill="#212121"/>
</g>
<defs>
<filter id="filter0_b" x="-6.57971" y="54.4203" width="404.159" height="88.6772" filterUnits="userSpaceOnUse" color-interpolation-filters="sRGB">
<feFlood flood-opacity="0" result="BackgroundImageFix"/>
<feGaussianBlur in="BackgroundImage" stdDeviation="12.7899"/>
<feComposite in2="SourceAlpha" operator="in" result="effect1_backgroundBlur"/>
<feBlend mode="normal" in="SourceGraphic" in2="effect1_backgroundBlur" result="shape"/>
</filter>
<filter id="filter1_b" x="-28.7488" y="32.2512" width="177.353" height="133.014" filterUnits="userSpaceOnUse" color-interpolation-filters="sRGB">
<feFlood flood-opacity="0" result="BackgroundImageFix"/>
<feGaussianBlur in="BackgroundImage" stdDeviation="23.8744"/>
<feComposite in2="SourceAlpha" operator="in" result="effect1_backgroundBlur"/>
<feBlend mode="normal" in="SourceGraphic" in2="effect1_backgroundBlur" result="shape"/>
</filter>
<filter id="filter2_b" x="242.396" y="32.2512" width="177.353" height="133.014" filterUnits="userSpaceOnUse" color-interpolation-filters="sRGB">
<feFlood flood-opacity="0" result="BackgroundImageFix"/>
<feGaussianBlur in="BackgroundImage" stdDeviation="23.8744"/>
<feComposite in2="SourceAlpha" operator="in" result="effect1_backgroundBlur"/>
<feBlend mode="normal" in="SourceGraphic" in2="effect1_backgroundBlur" result="shape"/>
</filter>
<clipPath id="clip0">
<rect width="61.3913" height="13.6425" fill="white" transform="translate(296.966 93.6426)"/>
</clipPath>
<clipPath id="clip1">
<rect width="13.6425" height="13.6425" fill="white" transform="translate(317.43 93.6426)"/>
</clipPath>
<clipPath id="clip2">
<rect width="23.8744" height="13.6425" fill="white" transform="translate(334.483 93.6426)"/>
</clipPath>
<clipPath id="clip3">
<rect width="13.6425" height="7.24758" fill="white" transform="translate(336.188 97.4795)"/>
</clipPath>
</defs>
</svg>
